PathFileType	4	(X/Y/Z)	Kaydara																																																																																																																									
DataRate	CameraRate	NumFrames	NumMarkers	Units	OrigDataRate	OrigDataStartFrame	OrigNumFrames																																																																																																																					
30	30	4	41	mm	30	46	266																																																																																																																					
Frame#	Time	SALE_LFHD			SALE_RFHD			SALE_LBHD			SALE_RBHD			SALE_LFTShould			SALE_RFTShould			SALE_LRRShould			SALE_RRRShould			SALE_T10			SALE_STRN			SALE_TRUN			SALE_LSHO			SALE_LUPA			SALE_LELB			SALE_LFRM			SALE_LWRA			SALE_LWRB			SALE_LFIN			SALE_RSHO			SALE_RUPA			SALE_RELB			SALE_RFRM			SALE_RWRB			SALE_RFIN			SALE_LFWT			SALE_RFWT			SALE_LBWT			SALE_RBWT			SALE_LTHI			SALE_LKNE			SALE_RWRA			SALE_LSHN			SALE_LANK			SALE_LHEE			SALE_LTOE			SALE_RTHI			SALE_RKNE			SALE_RSHN			SALE_RANK			SALE_RHEE			SALE_RTOE		
		X1	Y1	Z1	X2	Y2	Z2	X3	Y3	Z3	X4	Y4	Z4	X5	Y5	Z5	X6	Y6	Z6	X7	Y7	Z7	X8	Y8	Z8	X9	Y9	Z9	X10	Y10	Z10	X11	Y11	Z11	X12	Y12	Z12	X13	Y13	Z13	X14	Y14	Z14	X15	Y15	Z15	X16	Y16	Z16	X17	Y17	Z17	X18	Y18	Z18	X19	Y19	Z19	X20	Y20	Z20	X21	Y21	Z21	X22	Y22	Z22	X23	Y23	Z23	X24	Y24	Z24	X25	Y25	Z25	X26	Y26	Z26	X27	Y27	Z27	X28	Y28	Z28	X29	Y29	Z29	X30	Y30	Z30	X31	Y31	Z31	X32	Y32	Z32	X33	Y33	Z33	X34	Y34	Z34	X35	Y35	Z35	X36	Y36	Z36	X37	Y37	Z37	X38	Y38	Z38	X39	Y39	Z39	X40	Y40	Z40	X41	Y41	Z41
																																																																																																																												
1	1.5	233.46325	1651.07773	-1962.08282	101.226	1644.94064	-1960.54108	229.94488	1638.19107	-2094.69894	104.73704	1630.14603	-2087.55051	252.99213	1391.49261	-2002.62283	109.48496	1385.90744	-2002.63306	245.12218	1447.14996	-2116.13571	93.00714	1451.0112	-2106.26877	169.67213	1296.95251	-2186.71021	177.93118	1314.4516	-1957.26501	176.67301	1227.38388	-1918.65723	367.11098	1416.07147	-2068.58368	409.14532	1198.03955	-2072.388	394.9165	1088.61534	-2092.05933	420.07328	983.33359	-2057.09396	352.43038	847.83958	-1995.16937	420.84904	839.05464	-2027.92618	413.56056	797.49168	-1978.93753	1.20431	1414.15894	-2060.41382	-34.33332	1184.72961	-2123.53806	-59.15675	1084.07715	-2077.74872	-52.07201	970.68054	-2087.99408	-64.99578	829.52843	-2039.9585	-71.07933	794.21989	-1985.02197	300.82834	975.44022	-1973.44009	22.24304	974.832	-1991.94275	254.05268	1039.41933	-2144.91577	75.01223	1043.94386	-2155.98358	303.7183	676.60049	-2143.53714	289.69889	505.44319	-2069.44122	-17.66	845.50835	-1988.15094	283.96576	308.08979	-2073.42209	280.47363	124.14736	-2123.54904	244.15392	75.295	-2187.62421	247.70452	86.37713	-1990.01892	16.45235	722.91786	-2153.96332	34.46992	562.23946	-2055.65643	84.85342	374.22466	-2077.45926	34.86674	125.49836	-2134.26422	49.18555	77.66245	-2014.55643	76.89116	62.52777	-2206.14456
2	1.533	233.51315	1650.85648	-1962.02118	101.41745	1644.94034	-1960.40421	230.0351	1637.9483	-2094.65912	104.84074	1630.01892	-2087.38464	252.78278	1391.40533	-2002.47894	110.45139	1386.05591	-2001.6481	244.88823	1447.16629	-2116.02905	92.76657	1450.97534	-2105.97885	169.32167	1296.97495	-2186.50543	177.92435	1314.38507	-1957.11853	176.65037	1227.31812	-1918.49304	366.91406	1415.98816	-2068.54782	408.98682	1197.97455	-2072.42508	394.77547	1088.53432	-2092.07748	419.92012	983.24821	-2057.19574	352.31308	847.66731	-1995.32013	420.76374	838.95325	-2028.08655	413.47485	797.40639	-1979.15161	0.99249	1414.09637	-2059.98642	-34.64632	1184.70596	-2123.10867	-59.3551	1084.00795	-2077.22137	-52.28766	970.68169	-2087.53967	-65.08631	829.59091	-2039.61258	-71.14196	794.18655	-1984.54361	300.74772	975.40588	-1973.35052	22.11152	974.77333	-1991.64795	253.84439	1039.39301	-2144.82498	74.76691	1043.94325	-2155.74677	303.58776	676.62399	-2143.51776	289.58134	505.40997	-2069.43405	-17.63836	845.46867	-1987.81479	283.97152	308.1283	-2073.45673	280.46598	124.16509	-2123.57285	244.11983	75.30143	-2187.63657	247.71696	86.39969	-1990.03021	16.34181	722.92198	-2153.82736	34.41359	562.18372	-2055.60394	84.71617	374.19472	-2077.33215	34.86501	125.49087	-2134.28177	49.17849	77.65597	-2014.5578	76.89019	62.49648	-2206.15738
3	1.567	233.85109	1650.74478	-1962.10968	101.65818	1645.00031	-1960.27939	230.17237	1637.65289	-2094.7023	104.97857	1629.95239	-2087.23557	252.59283	1391.28815	-2002.37534	108.64675	1385.24963	-2003.69919	244.70018	1447.12204	-2115.97839	92.56797	1450.9642	-2105.68619	168.99588	1296.93542	-2186.35696	177.87266	1314.31442	-1956.94641	176.59744	1227.1949	-1918.35617	366.68652	1415.90439	-2068.62991	408.79616	1197.88002	-2072.4971	394.55975	1088.42125	-2092.05948	419.75716	983.13965	-2057.08252	352.21432	847.58415	-1995.00931	420.57785	838.8623	-2027.77481	413.36662	797.41096	-1978.83804	0.80503	1414.09805	-2059.65225	-34.83367	1184.72076	-2122.74719	-59.49673	1083.98735	-2076.86401	-52.45618	970.68375	-2087.21497	-65.32816	829.60632	-2039.29382	-71.15895	794.14925	-1984.23035	300.68014	975.39307	-1973.32596	22.0384	974.72839	-1991.38702	253.65961	1039.38675	-2144.73602	74.53441	1043.92242	-2155.54581	303.50117	676.64818	-2143.49075	289.58374	505.43037	-2069.42612	-17.69739	845.40802	-1987.55783	283.9246	308.1201	-2073.4552	280.42892	124.14278	-2123.59222	244.09597	75.2924	-2187.62604	247.72306	86.4035	-1990.04227	16.18268	722.97073	-2153.81134	34.28741	562.14939	-2055.52414	84.76434	374.22466	-2077.43317	34.82591	125.49417	-2134.29733	49.17196	77.66478	-2014.56772	76.88432	62.51958	-2206.17645
4	1.6	234.09595	1650.51712	-1962.07596	102.00658	1645.01144	-1960.11002	230.34672	1637.41898	-2094.72488	105.07919	1629.9205	-2087.13943	252.42916	1391.16364	-2002.33734	109.76184	1386.53458	-2001.70868	244.49518	1447.07062	-2115.99045	92.38874	1450.90683	-2105.48386	168.72269	1296.94	-2186.29562	177.83276	1314.20929	-1956.9133	176.53727	1227.11838	-1918.32458	366.54175	1415.80719	-2068.7886	408.58574	1197.71469	-2072.43942	394.39461	1088.3242	-2091.94458	419.52946	983.04649	-2056.75858	352.04937	847.74101	-1994.36371	420.38033	838.83064	-2027.11197	413.26824	797.54044	-1978.04504	0.68715	1414.0686	-2059.4278	-35.02433	1184.74686	-2122.50488	-59.65444	1083.97484	-2076.64597	-52.57718	970.53474	-2086.94305	-65.50223	829.73465	-2038.98605	-71.15645	794.0757	-1984.01138	300.61893	975.42892	-1973.13477	21.88432	974.70512	-1991.1618	253.47309	1039.35059	-2144.62494	74.36322	1043.94287	-2155.3537	303.43998	676.64337	-2143.37494	289.50098	505.415	-2069.37225	-17.75898	845.36842	-1987.37885	283.88418	308.15441	-2073.42484	280.41401	124.22408	-2123.55316	244.07085	75.32154	-2187.63306	247.71946	86.38779	-1990.02594	16.05183	723.15323	-2153.95187	34.15628	562.1648	-2055.43121	84.54504	374.16962	-2077.25677	34.7847	125.47737	-2134.26682	49.15875	77.66012	-2014.57123	76.84771	62.52265	-2206.18286
